{
  "accessors": [
    {
      "bufferView": 2,
      "componentType": 5126,
      "count": 65532,
      "max": [
        29.043243408203125,
        10.518264770507813,
        42.759742736816406
      ],
      "min": [
        7.75002384185791,
        0.0,
        0.0
      ],
      "type": "VEC3"
    },
    {
      "bufferView": 2,
      "byteOffset": 786384,
      "componentType": 5126,
      "count": 65532,
      "max": [
        0.9999990463256836,
        0.9999997019767761,
        0.9999985694885254
      ],
      "min": [
        -0.9999999403953552,
        -0.9999593496322632,
        -0.9999977946281433
      ],
      "type": "VEC3"
    },
    {
      "bufferView": 1,
      "componentType": 5126,
      "count": 65532,
      "max": [
        0.9927499890327454,
        0.995917022228241
      ],
      "min": [
        0.009352999739348888,
        0.0037430000957101583
      ],
      "type": "VEC2"
    },
    {
      "bufferView": 0,
      "componentType": 5125,
      "count": 320184,
      "type": "SCALAR"
    },
    {
      "bufferView": 2,
      "byteOffset": 1572768,
      "componentType": 5126,
      "count": 65532,
      "max": [
        27.729969024658203,
        10.675542831420898,
        42.56273651123047
      ],
      "min": [
        7.828593730926514,
        1.8206982612609863,
        18.51638412475586
      ],
      "type": "VEC3"
    },
    {
      "bufferView": 2,
      "byteOffset": 2359152,
      "componentType": 5126,
      "count": 65532,
      "max": [
        0.999996542930603,
        0.9999995231628418,
        0.9999959468841553
      ],
      "min": [
        -0.9999998807907104,
        -0.9999967217445374,
        -0.9999938607215881
      ],
      "type": "VEC3"
    },
    {
      "bufferView": 1,
      "byteOffset": 524256,
      "componentType": 5126,
      "count": 65532,
      "max": [
        0.9945449829101563,
        0.9963669776916504
      ],
      "min": [
        0.0037640000227838755,
        0.003717999905347824
      ],
      "type": "VEC2"
    },
    {
      "bufferView": 0,
      "byteOffset": 1280736,
      "componentType": 5125,
      "count": 312099,
      "type": "SCALAR"
    },
    {
      "bufferView": 2,
      "byteOffset": 3145536,
      "componentType": 5126,
      "count": 65532,
      "max": [
        29.185169219970703,
        10.555886268615723,
        45.1116943359375
      ],
      "min": [
        0.6146917343139648,
        1.094527244567871,
        0.4404010772705078
      ],
      "type": "VEC3"
    },
    {
      "bufferView": 2,
      "byteOffset": 3931920,
      "componentType": 5126,
      "count": 65532,
      "max": [
        0.9999955296516418,
        0.9999784827232361,
        0.999977707862854
      ],
      "min": [
        -0.9999703764915466,
        -0.9999947547912598,
        -0.9999729990959167
      ],
      "type": "VEC3"
    },
    {
      "bufferView": 1,
      "byteOffset": 1048512,
      "componentType": 5126,
      "count": 65532,
      "max": [
        0.9865829944610596,
        0.9964619874954224
      ],
      "min": [
        0.00330700003542006,
        0.0038469999562948942
      ],
      "type": "VEC2"
    },
    {
      "bufferView": 0,
      "byteOffset": 2529132,
      "componentType": 5125,
      "count": 305763,
      "type": "SCALAR"
    },
    {
      "bufferView": 2,
      "byteOffset": 4718304,
      "componentType": 5126,
      "count": 65533,
      "max": [
        28.89666748046875,
        10.67481803894043,
        43.61164474487305
      ],
      "min": [
        0.0,
        0.1919565200805664,
        0.6677932739257813
      ],
      "type": "VEC3"
    },
    {
      "bufferView": 2,
      "byteOffset": 5504700,
      "componentType": 5126,
      "count": 65533,
      "max": [
        0.9999997019767761,
        0.999967634677887,
        0.99994957447052
      ],
      "min": [
        -0.9999904632568359,
        -0.9999949932098389,
        -0.9999964237213135
      ],
      "type": "VEC3"
    },
    {
      "bufferView": 1,
      "byteOffset": 1572768,
      "componentType": 5126,
      "count": 65533,
      "max": [
        0.9866080284118652,
        0.9963080286979675
      ],
      "min": [
        0.0035439999774098396,
        0.0010359999723732471
      ],
      "type": "VEC2"
    },
    {
      "bufferView": 0,
      "byteOffset": 3752184,
      "componentType": 5125,
      "count": 272544,
      "type": "SCALAR"
    },
    {
      "bufferView": 2,
      "byteOffset": 6291096,
      "componentType": 5126,
      "count": 65533,
      "max": [
        28.997379302978516,
        10.59191608428955,
        36.253170013427734
      ],
      "min": [
        6.537969589233398,
        1.61915922164917,
        3.8529720306396484
      ],
      "type": "VEC3"
    },
    {
      "bufferView": 2,
      "byteOffset": 7077492,
      "componentType": 5126,
      "count": 65533,
      "max": [
        0.9999970197677612,
        0.9999189376831055,
        0.9999967813491821
      ],
      "min": [
        -0.9999992251396179,
        -0.999998152256012,
        -0.9999964833259583
      ],
      "type": "VEC3"
    },
    {
      "bufferView": 1,
      "byteOffset": 2097032,
      "componentType": 5126,
      "count": 65533,
      "max": [
        0.9869030117988586,
        0.9966599941253662
      ],
      "min": [
        0.0034890000242739916,
        0.0037320000119507313
      ],
      "type": "VEC2"
    },
    {
      "bufferView": 0,
      "byteOffset": 4842360,
      "componentType": 5125,
      "count": 265659,
      "type": "SCALAR"
    },
    {
      "bufferView": 2,
      "byteOffset": 7863888,
      "componentType": 5126,
      "count": 65532,
      "max": [
        21.95797348022461,
        9.479568481445313,
        44.16982650756836
      ],
      "min": [
        0.2859830856323242,
        0.3505682945251465,
        0.0
      ],
      "type": "VEC3"
    },
    {
      "bufferView": 2,
      "byteOffset": 8650272,
      "componentType": 5126,
      "count": 65532,
      "max": [
        0.9999794363975525,
        0.9999985694885254,
        0.9999988079071045
      ],
      "min": [
        -0.9999973773956299,
        -0.9999913573265076,
        -0.9999879002571106
      ],
      "type": "VEC3"
    },
    {
      "bufferView": 1,
      "byteOffset": 2621296,
      "componentType": 5126,
      "count": 65532,
      "max": [
        0.9881629943847656,
        0.9964749813079834
      ],
      "min": [
        0.0035669999197125435,
        0.0037700000684708357
      ],
      "type": "VEC2"
    },
    {
      "bufferView": 0,
      "byteOffset": 5904996,
      "componentType": 5125,
      "count": 274422,
      "type": "SCALAR"
    },
    {
      "bufferView": 2,
      "byteOffset": 9436656,
      "componentType": 5126,
      "count": 24604,
      "max": [
        28.812618255615234,
        6.094409942626953,
        44.12541580200195
      ],
      "min": [
        14.453104019165039,
        2.0617332458496094,
        29.24290657043457
      ],
      "type": "VEC3"
    },
    {
      "bufferView": 2,
      "byteOffset": 9731904,
      "componentType": 5126,
      "count": 24604,
      "max": [
        0.9999942779541016,
        0.9999991655349731,
        0.9999885559082031
      ],
      "min": [
        -0.9999911189079285,
        -0.999978244304657,
        -0.9999943375587463
      ],
      "type": "VEC3"
    },
    {
      "bufferView": 1,
      "byteOffset": 3145552,
      "componentType": 5126,
      "count": 24604,
      "max": [
        0.9842119812965393,
        0.9961410164833069
      ],
      "min": [
        0.01851700060069561,
        0.003872999921441078
      ],
      "type": "VEC2"
    },
    {
      "bufferView": 0,
      "byteOffset": 7002684,
      "componentType": 5125,
      "count": 107208,
      "type": "SCALAR"
    }
  ],
  "asset": {
    "extras": {
      "author": "Δ (https://sketchfab.com/sakis259106)",
      "license": "CC-BY-4.0 (http://creativecommons.org/licenses/by/4.0/)",
      "source": "https://sketchfab.com/3d-models/abandoned-house-interior-c2130293962244d0b8e325919b4cf99d",
      "title": "abandoned house interior"
    },
    "generator": "Sketchfab-12.68.0",
    "version": "2.0"
  },
  "bufferViews": [
    {
      "buffer": 0,
      "byteLength": 7431516,
      "name": "floatBufferViews",
      "target": 34963
    },
    {
      "buffer": 0,
      "byteLength": 3342384,
      "byteOffset": 7431516,
      "byteStride": 8,
      "name": "floatBufferViews",
      "target": 34962
    },
    {
      "buffer": 0,
      "byteLength": 10027152,
      "byteOffset": 10773900,
      "byteStride": 12,
      "name": "floatBufferViews",
      "target": 34962
    }
  ],
  "buffers": [
    {
      "byteLength": 20801052,
      "uri": "scene.bin"
    }
  ],
  "extensionsUsed": [
    "KHR_materials_unlit"
  ],
  "images": [
    {
      "uri": "textures/material_0_baseColor.jpeg"
    }
  ],
  "materials": [
    {
      "extensions": {
        "KHR_materials_unlit": {}
      },
      "name": "material_0",
      "pbrMetallicRoughness": {
        "baseColorTexture": {
          "index": 0
        },
        "metallicFactor": 0.0
      }
    }
  ],
  "meshes": [
    {
      "name": "Object_0",
      "primitives": [
        {
          "attributes": {
            "NORMAL": 1,
            "POSITION": 0,
            "TEXCOORD_0": 2
          },
          "indices": 3,
          "material": 0,
          "mode": 4
        }
      ]
    },
    {
      "name": "Object_1",
      "primitives": [
        {
          "attributes": {
            "NORMAL": 5,
            "POSITION": 4,
            "TEXCOORD_0": 6
          },
          "indices": 7,
          "material": 0,
          "mode": 4
        }
      ]
    },
    {
      "name": "Object_2",
      "primitives": [
        {
          "attributes": {
            "NORMAL": 9,
            "POSITION": 8,
            "TEXCOORD_0": 10
          },
          "indices": 11,
          "material": 0,
          "mode": 4
        }
      ]
    },
    {
      "name": "Object_3",
      "primitives": [
        {
          "attributes": {
            "NORMAL": 13,
            "POSITION": 12,
            "TEXCOORD_0": 14
          },
          "indices": 15,
          "material": 0,
          "mode": 4
        }
      ]
    },
    {
      "name": "Object_4",
      "primitives": [
        {
          "attributes": {
            "NORMAL": 17,
            "POSITION": 16,
            "TEXCOORD_0": 18
          },
          "indices": 19,
          "material": 0,
          "mode": 4
        }
      ]
    },
    {
      "name": "Object_5",
      "primitives": [
        {
          "attributes": {
            "NORMAL": 21,
            "POSITION": 20,
            "TEXCOORD_0": 22
          },
          "indices": 23,
          "material": 0,
          "mode": 4
        }
      ]
    },
    {
      "name": "Object_6",
      "primitives": [
        {
          "attributes": {
            "NORMAL": 25,
            "POSITION": 24,
            "TEXCOORD_0": 26
          },
          "indices": 27,
          "material": 0,
          "mode": 4
        }
      ]
    }
  ],
  "nodes": [
    {
      "children": [
        1
      ],
      "matrix": [
        0.9997948408126831,
        -0.020256109535694122,
        -4.497759839171361e-18,
        0.0,
        -0.02024608664214611,
        -0.9993000626564026,
        -0.03145532310009025,
        0.0,
        0.0006371624767780304,
        0.031448867172003014,
        -0.9995051622390747,
        0.0,
        -0.052469391375780106,
        -8.582500457763672,
        -3.297040224075319,
        1.0
      ],
      "name": "Sketchfab_model"
    },
    {
      "children": [
        2,
        3,
        4,
        5,
        6,
        7,
        8
      ],
      "matrix": [
        1.0,
        0.0,
        0.0,
        0.0,
        0.0,
        1.0,
        0.0,
        0.0,
        0.0,
        0.0,
        1.0,
        0.0,
        -9.383696556091309,
        -8.172404289245605,
        -28.601327896118164,
        1.0
      ],
      "name": "modelnew.obj.cleaner.gles"
    },
    {
      "mesh": 0,
      "name": "Object_2"
    },
    {
      "mesh": 1,
      "name": "Object_3"
    },
    {
      "mesh": 2,
      "name": "Object_4"
    },
    {
      "mesh": 3,
      "name": "Object_5"
    },
    {
      "mesh": 4,
      "name": "Object_6"
    },
    {
      "mesh": 5,
      "name": "Object_7"
    },
    {
      "mesh": 6,
      "name": "Object_8"
    }
  ],
  "samplers": [
    {
      "magFilter": 9729,
      "minFilter": 9987,
      "wrapS": 10497,
      "wrapT": 10497
    }
  ],
  "scene": 0,
  "scenes": [
    {
      "name": "Sketchfab_Scene",
      "nodes": [
        0
      ]
    }
  ],
  "textures": [
    {
      "sampler": 0,
      "source": 0
    }
  ]
}
